<?xml version="1.0" encoding="UTF-8" standalone="no"?>
<!-- Created with Inkscape (http://www.inkscape.org/) -->

<svg
   width="256"
   height="256"
   viewBox="0 0 67.733331 67.733331"
   version="1.1"
   id="svg3856"
   inkscape:version="1.2.1 (9c6d41e410, 2022-07-14)"
   sodipodi:docname="icon.svg"
   inkscape:export-filename="icon.png"
   inkscape:export-xdpi="96"
   inkscape:export-ydpi="96"
   xmlns:inkscape="http://www.inkscape.org/namespaces/inkscape"
   xmlns:sodipodi="http://sodipodi.sourceforge.net/DTD/sodipodi-0.dtd"
   xmlns="http://www.w3.org/2000/svg"
   xmlns:svg="http://www.w3.org/2000/svg">
  <sodipodi:namedview
     id="namedview3858"
     pagecolor="#ffffff"
     bordercolor="#111111"
     borderopacity="1"
     inkscape:showpageshadow="0"
     inkscape:pageopacity="0"
     inkscape:pagecheckerboard="1"
     inkscape:deskcolor="#d1d1d1"
     inkscape:document-units="mm"
     showgrid="false"
     inkscape:zoom="2.114039"
     inkscape:cx="-5.9128521"
     inkscape:cy="127.71761"
     inkscape:window-width="1920"
     inkscape:window-height="1011"
     inkscape:window-x="0"
     inkscape:window-y="32"
     inkscape:window-maximized="1"
     inkscape:current-layer="layer1" />
  <defs
     id="defs3853" />
  <g
     inkscape:label="Layer 1"
     inkscape:groupmode="layer"
     id="layer1"
     transform="translate(-49.140877,-54.855642)">
    <g
       id="g3797"
       transform="matrix(0.29716445,0,0,0.29716445,310.38598,-677.98196)">
      <g
         id="g14617-6-4-4-9"
         transform="matrix(0.33941161,0.74844771,0.74844771,-0.33941161,-2634.885,4117.3371)"
         style="fill:#000000">
        <path
           d="m 1076.8747,2255.7846 v 0.821 c -9.0312,-19.7044 -17.1654,-33.5282 -31.619,-38.6929 -7.3891,-1.642 -14.7782,-2.463 -22.1674,-2.463 -9.8522,0 -15.1808,8.7995 -15.1808,18.6517 0.821,10.6732 4.5076,19.936 15.1808,19.936 0,0 20.9457,-6.463 21.7667,38.6929"
           style="font-size:821.016px;line-height:1.25;font-family:MotownerRounded;-inkscape-font-specification:MotownerRounded;fill:#000000;fill-opacity:1;stroke:none;stroke-width:4.27612;stroke-opacity:1"
           id="path1460-9-0-2-9-2-7-0-03"
           sodipodi:nodetypes="cccsccc"
           transform="translate(-1872.8427,559.48478)" />
        <path
           d="m -844.20518,2813.1249 c 0,0 -30.04563,37.8301 -67.44571,9.7458 0,0 32.88332,-2.4677 44.88398,-29.9397 0,0 -22.65023,-23.2105 -52.54535,-6.2202 0,0 42.52888,-50.1441 81.29492,-11.2109"
           style="clip-rule:evenodd;fill:#000000;fill-opacity:1;fill-rule:nonzero;stroke:none;stroke-width:12.7285;stroke-linejoin:round;stroke-miterlimit:1.41421;stroke-dasharray:none;stroke-opacity:1"
           id="path14558-8-2-0-3" />
      </g>
      <path
         style="fill:#000000;fill-opacity:1;fill-rule:evenodd;stroke:none;stroke-width:0.047;stroke-miterlimit:4.2;stroke-dasharray:none;stroke-dashoffset:0;stroke-opacity:1"
         d="m -831.90771,2571.0132 c 0.075,-0.195 -0.4832,-1.1892 -1.2478,-2.223 -0.7607,-1.0287 4.078,-1.2041 3.1467,-2.6284 -1.4827,-2.2671 1.59693,1.9005 1.59323,0.865 0,-0.9976 3.50457,-2.2827 4.17237,-2.9505 0.7703,-0.7702 -8.99502,-3.7477 -5.14352,-4.1902 2.1771,-0.2501 1.51542,-3.009 2.20292,-3.0156 2.2168,-0.022 2.2193,-0.069 0.2095,-3.9352 -3.4334,-6.6048 -3.6247,-7.5124 -1.9391,-9.198 0.8709,-0.871 0.8722,-0.8713 3.2114,-0.8713 2.2491,0 6.7728,0.3583 8.2059,0.6499 1.0503,0.2137 1.0876,-0.3551 0.2197,-3.3458 -1.1401,-3.9281 -1.7743,-6.579 -1.7776,-7.4291 -0.01,-1.5264 1.5701,-3.125 3.0808,-3.125 0.684,0 5.24143,1.1603 8.28864,2.1104 2.49769,0.7788 2.6546,0.6715 2.3561,-1.6104 -0.1169,-0.8938 -0.289,-3.2022 -0.3826,-5.1299 -0.1469,-3.026 -0.1123,-3.6168 0.2532,-4.3236 0.5189,-1.0035 1.7574,-1.7944 2.8117,-1.7956 0.9065,0 3.9503,1.3483 7.6019,3.3699 1.8634,1.0317 2.6158,1.3323 2.8495,1.1383 0.1838,-0.1525 0.3899,-1.1846 0.4892,-2.4488 0.2713,-3.4544 0.9244,-7.6212 1.3141,-8.3839 0.5482,-1.0727 1.7647,-1.7234 2.9901,-1.5992 1.1294,0.1144 2.6411,1.0967 6.8959,4.4806 1.5325,1.2189 2.5708,1.8789 2.8107,1.7868 0.3573,-0.1371 0.4796,-0.4724 1.1522,-3.1571 0.1464,-0.5844 0.6587,-2.3563 1.1386,-3.9375 0.7149,-2.3558 1.0274,-3.0217 1.7302,-3.6875 0.7204,-0.6825 1.0479,-0.8125 2.0462,-0.8125 h 1.1885 l 3.8633,3.8841 c 2.12489,2.1364 4.0295,3.8518 4.2327,3.8125 0.20759,-0.04 0.9849,-1.4959 1.7736,-3.3216 2.1529,-4.9837 2.9745,-6.3835 4.0779,-6.9474 2.1468,-1.0971 3.3465,-0.1903 7.1343,5.3931 1.4701,2.1671 2.4842,3.4293 2.755,3.4293 0.263,0 0.8579,-0.7 1.5405,-1.8125 2.5415,-4.1423 4.2639,-6.6598 4.8973,-7.158 0.8465,-0.6659 2.2206,-0.6862 3.2665,-0.049 0.7368,0.4493 2.0724,2.6593 4.9973,8.269 0.4211,0.8076 0.8844,1.375 1.1227,1.375 0.2233,0 0.8892,-0.6188 1.4798,-1.375 2.237,-2.864 5.3407,-6.2896 6.0143,-6.6379 1.0152,-0.5249 2.2772,-0.445 3.2506,0.2059 0.6924,0.4629 1.0422,1.0524 1.8916,3.1875 0.5731,1.4407 1.358,3.7099 1.7442,5.0427 0.4657,1.607 0.8381,2.4587 1.1058,2.5287 0.2381,0.062 1.3125,-0.6483 2.6202,-1.7329 3.4284,-2.8435 5.9978,-4.6078 6.9089,-4.744 0.9819,-0.1468 2.3292,0.4819 2.9998,1.4 0.5364,0.7344 1.0609,3.5177 1.4829,7.8695 0.2459,2.5363 0.3817,3.1478 0.7232,3.2562 0.236,0.075 1.3034,-0.3549 2.4328,-0.9796 3.2968,-1.8236 6.9288,-3.3962 7.8415,-3.3952 1.1092,0 2.3433,0.772 2.8714,1.7932 0.3567,0.6897 0.3966,1.2622 0.2578,3.6928 -0.09,1.582 -0.2884,3.9287 -0.44,5.2147 -0.188,1.5939 -0.1944,2.4196 -0.02,2.594 0.1743,0.1743 0.9598,0.05 2.4676,-0.3902 2.8914,-0.8443 7.4317,-1.9057 8.1472,-1.9045 0.8483,0 2.1124,0.8746 2.5827,1.7841 0.5907,1.1422 0.3738,2.6286 -1.0346,7.09 -0.6511,2.0625 -1.2383,4.0759 -1.3049,4.4742 l -0.1211,0.7242 1.2212,-0.1603 c 2.9863,-0.392 9.3766,-0.6393 10.0385,-0.3885 1.0375,0.3931 1.7855,1.2143 2.0707,2.2732 0.2295,0.8525 0.1623,1.1746 -0.6236,2.9882 -0.4845,1.118 -1.6154,3.3759 -2.513,5.0175 -0.8977,1.6416 -1.5762,3.0752 -1.5079,3.1858 0.068,0.1105 1.1102,0.2769 2.3154,0.3697 4.2813,0.3296 8.1903,0.9208 8.9412,1.3521 1.0031,0.5763 1.6845,1.9263 1.5215,3.0144 -0.07,0.4678 -0.6019,1.5366 -1.1819,2.375 -1.8947,2.7393 -5.0633,6.8995 -5.255,6.8995 -0.1031,0 -0.024,0.4641 0.1765,1.0314 0.2001,0.5673 0.3639,1.0736 0.3639,1.125 0,0.052 -38.4152,0.094 -85.3672,0.094 -73.38934,0 -85.34814,-0.05 -85.23174,-0.3528 z"
         id="path7416-6-3-1-2-8-5-8-7-8-8-5-3-4-0-6-3"
         sodipodi:nodetypes="ssscsscssssscssssscssssssssssscssssssssssssssssssssssscssssscssscssssssssssssssss" />
      <g
         aria-label="N"
         id="text5459-7-6-6-6-9-7-0-8-0-5-0-6-0-7-6-2-7"
         style="font-size:587.014px;line-height:1.25;font-family:MotownerRounded;-inkscape-font-specification:MotownerRounded;fill:#000000;fill-opacity:1;stroke-width:3.05738"
         transform="translate(437.18329,1377.5913)">
        <path
           d="m -1088.6384,1226.8297 c -1.174,-41.091 -25.2416,-82.182 -68.6806,-89.2261 -29.3507,-4.6961 -60.4624,1.174 -83.356,20.5455 -14.6753,12.9143 -24.0676,31.6987 -28.1767,51.0702 -2.935,15.2623 -2.348,30.5247 -2.348,45.7871 v 42.4628 c 0,17.6104 37.5896,18.1974 37.5896,0 0,-22.3065 -0.587,-19.6161 0,-34.8785 0,0 3.9726,-45.1585 58.6807,-45.1585 49.9499,0 49.2884,47.8505 49.2884,48.6806 v 31.3564 c 0,17.6104 37.0026,18.1974 37.0026,0 0,-9.9792 0.587,-64.7694 0,-70.6395 z"
           id="path5776-2-7-3-6-0-8-3-8-0-6-3-4-7-2-6-3"
           sodipodi:nodetypes="ccccssscssssc"
           style="fill:#000000;fill-opacity:1" />
      </g>
      <g
         aria-label="N"
         id="text5459-7-6-6-6-9-7-0-8-8-7-8-1-1-4-9-9"
         style="font-size:587.014px;line-height:1.25;font-family:MotownerRounded;-inkscape-font-specification:MotownerRounded;fill:#f74c00;fill-opacity:1;stroke-width:3.05738"
         transform="translate(428.58099,1371.3812)">
        <path
           d="m -1087.4318,1225.2319 c -1.174,-41.091 -25.2416,-82.182 -68.6806,-89.2261 -29.3507,-4.6961 -60.4624,1.174 -83.356,20.5455 -14.6753,12.9143 -24.0676,31.6987 -28.1767,51.0702 -2.935,15.2623 -2.348,30.5247 -2.348,45.7871 v 42.4628 c 0,17.6104 37.5896,18.1974 37.5896,0 0,-22.3065 -0.587,-19.6161 0,-34.8785 0,0 3.9726,-45.1585 58.6807,-45.1585 49.9499,0 49.2884,47.8505 49.2884,48.6806 v 31.3564 c 0,17.6104 37.0026,18.1974 37.0026,0 0,-9.9792 0.587,-64.7694 0,-70.6395 z"
           id="path5776-2-7-3-6-0-8-3-9-6-8-7-0-0-6-6"
           sodipodi:nodetypes="ccccssscssssc"
           style="fill:#f74c00;fill-opacity:1" />
      </g>
      <path
         style="fill:#f74c00;fill-opacity:1;fill-rule:evenodd;stroke:none;stroke-width:0.047;stroke-miterlimit:4.2;stroke-dasharray:none;stroke-dashoffset:0;stroke-opacity:1"
         d="m -2875.787,2493.407 c 17.7301,-7.9117 2.1437,14.8494 4.7239,-14.1427 2.2168,-0.022 2.2193,-0.069 0.2095,-3.9352 -3.4334,-6.6048 -3.6247,-7.5124 -1.9391,-9.198 0.8709,-0.871 0.8722,-0.8713 3.2114,-0.8713 2.2491,0 6.7728,0.3583 8.2059,0.6499 1.0503,0.2137 1.0876,-0.3551 0.2197,-3.3458 -1.1401,-3.9281 -1.7743,-6.579 -1.7776,-7.4291 -0.01,-1.5264 1.5701,-3.125 3.0808,-3.125 0.684,0 5.2414,1.1604 8.2886,2.1105 2.4977,0.7787 2.6546,0.6714 2.3561,-1.6105 -0.1169,-0.8938 -0.289,-3.2022 -0.3826,-5.1299 -0.1469,-3.026 -0.1123,-3.6168 0.2532,-4.3236 0.5189,-1.0034 1.7574,-1.7943 2.8117,-1.7956 0.9065,0 3.9503,1.3483 7.6019,3.37 1.8634,1.0316 2.6158,1.3322 2.8495,1.1382 0.1838,-0.1525 0.3899,-1.1845 0.4892,-2.4488 0.2713,-3.4544 0.9244,-7.6212 1.3141,-8.3839 0.5482,-1.0727 1.7647,-1.7234 2.9901,-1.5992 1.1294,0.1144 2.6411,1.0967 6.8959,4.4806 1.5325,1.2189 2.5708,1.8789 2.8107,1.7868 0.3573,-0.1371 0.4796,-0.4724 1.1522,-3.1571 0.1464,-0.5844 0.6587,-2.3563 1.1386,-3.9375 0.7149,-2.3558 1.0274,-3.0217 1.7302,-3.6875 0.7204,-0.6825 1.0479,-0.8125 2.0462,-0.8125 h 1.1885 l 3.8633,3.8841 c 2.1249,2.1364 4.0295,3.8518 4.2327,3.8125 0.2076,-0.04 0.9849,-1.4959 1.7736,-3.3216 2.1529,-4.9837 2.9745,-6.3835 4.0779,-6.9474 2.1468,-1.0971 3.3465,-0.1903 7.1343,5.3931 1.4701,2.1671 2.4842,3.4293 2.755,3.4293 0.263,0 0.8579,-0.7 1.5405,-1.8125 2.5415,-4.1423 4.2639,-6.6598 4.8973,-7.158 0.8465,-0.6659 2.2206,-0.6862 3.2665,-0.049 0.7368,0.4493 2.0724,2.6593 4.9973,8.269 0.4211,0.8076 0.8844,1.375 1.1227,1.375 0.2233,0 0.8892,-0.6188 1.4798,-1.375 2.237,-2.864 5.3407,-6.2896 6.0143,-6.6379 1.0152,-0.5249 2.2772,-0.445 3.2506,0.2059 0.6924,0.4629 1.0422,1.0524 1.8916,3.1875 0.5731,1.4407 1.358,3.7099 1.7442,5.0427 0.4657,1.607 0.8381,2.4587 1.1058,2.5287 0.2381,0.062 1.3125,-0.6483 2.6202,-1.7329 3.4284,-2.8435 5.9978,-4.6078 6.9089,-4.744 0.9819,-0.1468 2.3292,0.4819 2.9998,1.4 0.5364,0.7344 1.0609,3.5177 1.4829,7.8695 0.2459,2.5363 0.3817,3.1478 0.7232,3.2562 0.236,0.075 1.3034,-0.3549 2.4328,-0.9796 3.2968,-1.8236 6.9288,-3.3962 7.8415,-3.3952 1.1092,0 2.3433,0.772 2.8714,1.7932 0.3567,0.6897 0.3966,1.2622 0.2578,3.6928 -0.09,1.582 -0.2884,3.9287 -0.44,5.2147 -0.188,1.5939 -0.1944,2.4196 -0.02,2.594 0.1743,0.1743 0.9598,0.05 2.4676,-0.3902 2.8914,-0.8443 7.4317,-1.9057 8.1472,-1.9045 0.8483,0 2.1124,0.8746 2.5827,1.7841 0.5907,1.1422 0.3738,2.6286 -1.0346,7.09 -0.6511,2.0625 -1.2383,4.0759 -1.3049,4.4742 l -0.1211,0.7242 1.2212,-0.1603 c 2.9863,-0.392 9.3766,-0.6393 10.0385,-0.3885 1.0375,0.3931 1.7855,1.2143 2.0707,2.2732 0.2295,0.8525 0.1623,1.1746 -0.6236,2.9882 -0.4845,1.118 -1.6154,3.3759 -2.513,5.0175 -0.8977,1.6416 -1.5762,3.0752 -1.5079,3.1858 0.068,0.1105 1.1102,0.2769 2.3154,0.3697 4.2813,0.3296 8.1903,0.9208 8.9412,1.3521 1.0031,0.5763 1.6845,1.9263 1.5215,3.0144 -0.07,0.4678 -0.6019,1.5366 -1.1819,2.375 -1.8947,2.7393 -5.0633,6.8995 -5.255,6.8995 -0.1031,0 -0.024,0.4641 0.1765,1.0314 0.2001,0.5673 0.3639,1.0736 0.3639,1.125 0,0.052 -38.4152,0.094 -85.3672,0.094 -73.3893,0 -85.3481,-0.05 -85.2317,-0.3528 z"
         id="path7416-6-3-1-2-8-5-8-0-0-5-8-5-3-0-0"
         sodipodi:nodetypes="ccssssscssssscssssssssssscssssssssssssssssssssssscssssscssscsssssssssssssssc"
         transform="translate(2040.6121,71.51379)" />
      <g
         transform="matrix(0.231458,0,0,0.231458,-520.67619,2422.5223)"
         id="g24159-8-6-8-5-5-4-2-9-2-4-02-9-7-1-1-7-1"
         style="clip-rule:evenodd;fill-rule:evenodd;stroke-linejoin:round;stroke-miterlimit:1.41421">
        <path
           d="m -847.35976,474.09433 c 43.96776,10.80034 58.65423,63.42306 55.48519,99.47186 -6.94987,40.56811 -47.45951,68.27617 -87.4299,57.12398 -41.13974,-12.17001 -56.18697,-66.21241 -46.5051,-99.34773 9.72768,-36.72773 45.88901,-62.83874 78.44981,-57.24811 z"
           style="fill-rule:nonzero;stroke-width:1.16628"
           id="path24157-6-2-7-6-9-49-4-4-2-7-5-6-4-0-9-6-0"
           sodipodi:nodetypes="ccccc" />
      </g>
      <g
         transform="matrix(0.231458,0,0,0.231458,-510.15332,2402.7923)"
         id="g24163-8-9-9-3-6-9-7-1-2-6-19-38-1-8-6-1-4"
         style="clip-rule:evenodd;fill-rule:evenodd;stroke-linejoin:round;stroke-miterlimit:1.41421">
        <path
           d="m -860.66526,609.16989 c 0,21.62395 -12.74741,39.15426 -28.46649,39.15426 -15.71793,0 -28.46417,-17.53031 -28.46417,-39.15426 0,-21.62395 12.74624,-39.15659 28.46417,-39.15659 15.71908,0 28.46649,17.53264 28.46649,39.15659"
           style="fill:#ffffff;fill-rule:nonzero;stroke-width:1.16628"
           id="path24161-8-1-2-9-2-3-9-5-7-5-7-5-8-5-9-3-8" />
      </g>
      <g
         transform="matrix(0.231458,0,0,0.231458,-565.60033,2420.9887)"
         id="g24167-4-2-0-4-1-60-3-4-0-7-1-6-5-0-3-2-70"
         style="clip-rule:evenodd;fill-rule:evenodd;stroke-linejoin:round;stroke-miterlimit:1.41421">
        <path
           d="m -869.31467,487.01686 c 21.86126,10.10846 34.6279,33.29974 38.61413,56.2525 3.75476,24.91683 1.78746,52.76224 -14.28942,73.27749 -39.41932,42.24304 -100.27961,22.17146 -120.75996,-18.99382 -10.8843,-23.40704 -5.58441,-50.5081 4.16775,-73.3043 14.79601,-43.4146 57.00509,-52.39895 92.2675,-37.23187 z"
           style="fill-rule:nonzero;stroke-width:1.16628"
           id="path24165-3-7-2-8-7-5-9-1-3-1-3-1-9-6-3-1-8"
           sodipodi:nodetypes="cccccc" />
      </g>
      <g
         transform="matrix(0.231458,0,0,0.231458,-541.88861,2409.1699)"
         id="g24171-1-0-3-1-8-0-2-5-4-3-1-1-7-4-8-5-6"
         style="clip-rule:evenodd;fill-rule:evenodd;stroke-linejoin:round;stroke-miterlimit:1.41421">
        <path
           d="m -950.84502,585.05551 c 0,22.29806 -13.14395,40.38469 -29.35871,40.38469 -16.20892,0 -29.35607,-18.08663 -29.35607,-40.38469 0,-22.30388 13.14715,-40.38469 29.35607,-40.38469 16.21476,0 29.35871,18.08081 29.35871,40.38469"
           style="fill:#ffffff;fill-rule:nonzero;stroke-width:1.16628"
           id="path24169-4-9-7-2-57-29-8-5-6-3-2-59-5-6-0-9-24" />
      </g>
      <g
         id="g14617-5-9-7"
         transform="matrix(0.13364116,0.81087253,0.81087253,-0.13364116,-3000.9029,3589.5095)">
        <path
           d="m 1076.8747,2255.7846 v 0.821 c -4.6982,-20.367 -25.222,-41.9367 -53.7864,-41.1559 -9.8522,0 -15.1808,8.7995 -15.1808,18.6517 0.821,10.6732 4.5076,19.936 15.1808,19.936 0,0 20.9457,-6.463 21.7667,38.6929"
           style="font-size:821.016px;line-height:1.25;font-family:MotownerRounded;-inkscape-font-specification:MotownerRounded;fill:#f74c00;fill-opacity:1;stroke:none;stroke-width:4.27612;stroke-opacity:1"
           id="path1460-9-0-2-9-6-1-9"
           sodipodi:nodetypes="cccccc"
           transform="translate(-1872.8427,559.48478)" />
        <path
           d="m -844.20518,2813.1249 c 0,0 -30.04563,37.8301 -67.44571,9.7458 0,0 32.88332,-2.4677 44.88398,-29.9397 0,0 -22.65023,-23.2105 -52.54535,-6.2202 0,0 42.52888,-50.1441 81.29492,-11.2109"
           style="clip-rule:evenodd;fill:#f74c00;fill-opacity:1;fill-rule:nonzero;stroke:none;stroke-width:12.7285;stroke-linejoin:round;stroke-miterlimit:1.41421;stroke-dasharray:none;stroke-opacity:1"
           id="path14558-6-4-3" />
      </g>
    </g>
  </g>
</svg>
